#Comment line ignore any data following # character 
#Hierarchical Translation and Rotation (.htr) file 
[Header]	
#Header keywords are followed by a single value 
FileType HTR		#Single word string
DataType HTRS		#Translation followed by rotation and scale data
FileVersion 1		#integer
NumSegments 84		#integer
NumFrames 2		#integer
DataFrameRate 30		#integer, data frame rate in this file
EulerRotationOrder ZYX
CalibrationUnits mm
RotationUnits Degrees
GlobalAxisofGravity Y
BoneLengthAxis Y
ScaleFactor 1.00
[SegmentNames&Hierarchy]
#CHILD	PARENT
MASTER GLOBAL
root MASTER
chest root
L_mid_tent01 root
R_mid_tent01 root
spine01 root
Bip01_Neck chest
L_humerus chest
R_humerus chest
weapon_bone chest
Bip01_Head Bip01_Neck
eye_left_bone Bip01_Head
eye_right_bone Bip01_Head
L_forearm L_humerus
L_front_hand L_forearm
L_weapon_bone L_forearm
L_front_hand01_01 L_front_hand
L_front_hand02_01 L_front_hand
L_front_hand03_01 L_front_hand
L_front_hand01_02 L_front_hand01_01
L_front_hand02_02 L_front_hand02_01
L_front_hand03_02 L_front_hand03_01
R_forearm R_humerus
R_front_hand R_forearm
R_weapon_bone R_forearm
R_front_hand01_01 R_front_hand
R_front_hand02_01 R_front_hand
R_front_hand03_01 R_front_hand
R_front_hand01_02 R_front_hand01_01
R_front_hand02_02 R_front_hand02_01
R_front_hand03_02 R_front_hand03_01
null_rope01_connect L_mid_tent01
Rope1_Seg01 null_rope01_connect
Rope1_Seg02 Rope1_Seg01
Rope1_Seg03 Rope1_Seg02
Rope1_Seg04 Rope1_Seg03
Rope1_Seg05 Rope1_Seg04
Rope1_Seg06 Rope1_Seg05
Rope1_Seg07 Rope1_Seg06
Rope1_Seg09 Rope1_Seg07
L_mid_hand01 Rope1_Seg09
L_mid_hand02 Rope1_Seg09
L_mid_hand03 Rope1_Seg09
null_rope02_connect R_mid_tent01
Rope2_Seg01 null_rope02_connect
Rope2_Seg02 Rope2_Seg01
Rope2_Seg03 Rope2_Seg02
Rope2_Seg04 Rope2_Seg03
Rope2_Seg05 Rope2_Seg04
Rope2_Seg06 Rope2_Seg05
Rope2_Seg07 Rope2_Seg06
Rope2_Seg09 Rope2_Seg07
R_mid_hand01 Rope2_Seg09
R_mid_hand02 Rope2_Seg09
R_mid_hand03 Rope2_Seg09
spine02 spine01
spine03 spine02
pelvis spine03
null_rope03_connect pelvis
null_rope04_connect pelvis
Rope3_Seg01 null_rope03_connect
Rope3_Seg02 Rope3_Seg01
Rope3_Seg03 Rope3_Seg02
Rope3_Seg04 Rope3_Seg03
Rope3_Seg05 Rope3_Seg04
Rope3_Seg06 Rope3_Seg05
Rope3_Seg07 Rope3_Seg06
Rope3_Seg08 Rope3_Seg07
Rope3_Seg09 Rope3_Seg08
R_rear_hand01 Rope3_Seg09
R_rear_hand02 Rope3_Seg09
R_rear_hand03 Rope3_Seg09
Rope4_Seg01 null_rope04_connect
Rope4_Seg02 Rope4_Seg01
Rope4_Seg03 Rope4_Seg02
Rope4_Seg04 Rope4_Seg03
Rope4_Seg05 Rope4_Seg04
Rope4_Seg06 Rope4_Seg05
Rope4_Seg07 Rope4_Seg06
Rope4_Seg08 Rope4_Seg07
Rope4_Seg09 Rope4_Seg08
L_rear_hand01 Rope4_Seg09
L_rear_hand02 Rope4_Seg09
L_rear_hand03 Rope4_Seg09
[BasePosition]
#SegmentName Tx, Ty, Tz, Rx, Ry, Rz, BoneLength
MASTER 0.000000 0.000000 0.000000 -90.000000 0.000000 0.000000 10.000000 
root 0.000000 0.000000 0.000000 0.000000 0.000000 0.000000 10.000000 
chest 0.000000 0.000000 0.000000 0.000000 0.000000 0.000000 10.000000 
L_mid_tent01 0.000000 0.000000 0.000000 0.000000 0.000000 0.000000 10.000000 
R_mid_tent01 0.000000 0.000000 0.000000 0.000000 0.000000 0.000000 10.000000 
spine01 0.000000 0.000000 0.000000 0.000000 0.000000 0.000000 10.000000 
Bip01_Neck 0.000000 0.000000 0.000000 0.000000 0.000000 0.000000 10.000000 
L_humerus 0.000000 0.000000 0.000000 0.000000 0.000000 0.000000 10.000000 
R_humerus 0.000000 0.000000 0.000000 0.000000 0.000000 0.000000 10.000000 
weapon_bone 0.000000 0.000000 0.000000 0.000000 0.000000 0.000000 10.000000 
Bip01_Head 0.000000 0.000000 0.000000 0.000000 0.000000 0.000000 10.000000 
eye_left_bone 0.000000 0.000000 0.000000 0.000000 0.000000 0.000000 10.000000 
eye_right_bone 0.000000 0.000000 0.000000 0.000000 0.000000 0.000000 10.000000 
L_forearm 0.000000 0.000000 0.000000 0.000000 0.000000 0.000000 10.000000 
L_front_hand 0.000000 0.000000 0.000000 0.000000 0.000000 0.000000 10.000000 
L_weapon_bone 0.000000 0.000000 0.000000 0.000000 0.000000 0.000000 10.000000 
L_front_hand01_01 0.000000 0.000000 0.000000 0.000000 0.000000 0.000000 10.000000 
L_front_hand02_01 0.000000 0.000000 0.000000 0.000000 0.000000 0.000000 10.000000 
L_front_hand03_01 0.000000 0.000000 0.000000 0.000000 0.000000 0.000000 10.000000 
L_front_hand01_02 0.000000 0.000000 0.000000 0.000000 0.000000 0.000000 10.000000 
L_front_hand02_02 0.000000 0.000000 0.000000 0.000000 0.000000 0.000000 10.000000 
L_front_hand03_02 0.000000 0.000000 0.000000 0.000000 0.000000 0.000000 10.000000 
R_forearm 0.000000 0.000000 0.000000 0.000000 0.000000 0.000000 10.000000 
R_front_hand 0.000000 0.000000 0.000000 0.000000 0.000000 0.000000 10.000000 
R_weapon_bone 0.000000 0.000000 0.000000 0.000000 0.000000 0.000000 10.000000 
R_front_hand01_01 0.000000 0.000000 0.000000 0.000000 0.000000 0.000000 10.000000 
R_front_hand02_01 0.000000 0.000000 0.000000 0.000000 0.000000 0.000000 10.000000 
R_front_hand03_01 0.000000 0.000000 0.000000 0.000000 0.000000 0.000000 10.000000 
R_front_hand01_02 0.000000 0.000000 0.000000 0.000000 0.000000 0.000000 10.000000 
R_front_hand02_02 0.000000 0.000000 0.000000 0.000000 0.000000 0.000000 10.000000 
R_front_hand03_02 0.000000 0.000000 0.000000 0.000000 0.000000 0.000000 10.000000 
null_rope01_connect 0.000000 0.000000 0.000000 0.000000 0.000000 0.000000 10.000000 
Rope1_Seg01 0.000000 0.000000 0.000000 0.000000 0.000000 0.000000 10.000000 
Rope1_Seg02 0.000000 0.000000 0.000000 0.000000 0.000000 0.000000 10.000000 
Rope1_Seg03 0.000000 0.000000 0.000000 0.000000 0.000000 0.000000 10.000000 
Rope1_Seg04 0.000000 0.000000 0.000000 0.000000 0.000000 0.000000 10.000000 
Rope1_Seg05 0.000000 0.000000 0.000000 0.000000 0.000000 0.000000 10.000000 
Rope1_Seg06 0.000000 0.000000 0.000000 0.000000 0.000000 0.000000 10.000000 
Rope1_Seg07 0.000000 0.000000 0.000000 0.000000 0.000000 0.000000 10.000000 
Rope1_Seg09 0.000000 0.000000 0.000000 0.000000 0.000000 0.000000 10.000000 
L_mid_hand01 0.000000 0.000000 0.000000 0.000000 0.000000 0.000000 10.000000 
L_mid_hand02 0.000000 0.000000 0.000000 0.000000 0.000000 0.000000 10.000000 
L_mid_hand03 0.000000 0.000000 0.000000 0.000000 0.000000 0.000000 10.000000 
null_rope02_connect 0.000000 0.000000 0.000000 0.000000 0.000000 0.000000 10.000000 
Rope2_Seg01 0.000000 0.000000 0.000000 0.000000 0.000000 0.000000 10.000000 
Rope2_Seg02 0.000000 0.000000 0.000000 0.000000 0.000000 0.000000 10.000000 
Rope2_Seg03 0.000000 0.000000 0.000000 0.000000 0.000000 0.000000 10.000000 
Rope2_Seg04 0.000000 0.000000 0.000000 0.000000 0.000000 0.000000 10.000000 
Rope2_Seg05 0.000000 0.000000 0.000000 0.000000 0.000000 0.000000 10.000000 
Rope2_Seg06 0.000000 0.000000 0.000000 0.000000 0.000000 0.000000 10.000000 
Rope2_Seg07 0.000000 0.000000 0.000000 0.000000 0.000000 0.000000 10.000000 
Rope2_Seg09 0.000000 0.000000 0.000000 0.000000 0.000000 0.000000 10.000000 
R_mid_hand01 0.000000 0.000000 0.000000 0.000000 0.000000 0.000000 10.000000 
R_mid_hand02 0.000000 0.000000 0.000000 0.000000 0.000000 0.000000 10.000000 
R_mid_hand03 0.000000 0.000000 0.000000 0.000000 0.000000 0.000000 10.000000 
spine02 0.000000 0.000000 0.000000 0.000000 0.000000 0.000000 10.000000 
spine03 0.000000 0.000000 0.000000 0.000000 0.000000 0.000000 10.000000 
pelvis 0.000000 0.000000 0.000000 0.000000 0.000000 0.000000 10.000000 
null_rope03_connect 0.000000 0.000000 0.000000 0.000000 0.000000 0.000000 10.000000 
null_rope04_connect 0.000000 0.000000 0.000000 0.000000 0.000000 0.000000 10.000000 
Rope3_Seg01 0.000000 0.000000 0.000000 0.000000 0.000000 0.000000 10.000000 
Rope3_Seg02 0.000000 0.000000 0.000000 0.000000 0.000000 0.000000 10.000000 
Rope3_Seg03 0.000000 0.000000 0.000000 0.000000 0.000000 0.000000 10.000000 
Rope3_Seg04 0.000000 0.000000 0.000000 0.000000 0.000000 0.000000 10.000000 
Rope3_Seg05 0.000000 0.000000 0.000000 0.000000 0.000000 0.000000 10.000000 
Rope3_Seg06 0.000000 0.000000 0.000000 0.000000 0.000000 0.000000 10.000000 
Rope3_Seg07 0.000000 0.000000 0.000000 0.000000 0.000000 0.000000 10.000000 
Rope3_Seg08 0.000000 0.000000 0.000000 0.000000 0.000000 0.000000 10.000000 
Rope3_Seg09 0.000000 0.000000 0.000000 0.000000 0.000000 0.000000 10.000000 
R_rear_hand01 0.000000 0.000000 0.000000 0.000000 0.000000 0.000000 10.000000 
R_rear_hand02 0.000000 0.000000 0.000000 0.000000 0.000000 0.000000 10.000000 
R_rear_hand03 0.000000 0.000000 0.000000 0.000000 0.000000 0.000000 10.000000 
Rope4_Seg01 0.000000 0.000000 0.000000 0.000000 0.000000 0.000000 10.000000 
Rope4_Seg02 0.000000 0.000000 0.000000 0.000000 0.000000 0.000000 10.000000 
Rope4_Seg03 0.000000 0.000000 0.000000 0.000000 0.000000 0.000000 10.000000 
Rope4_Seg04 0.000000 0.000000 0.000000 0.000000 0.000000 0.000000 10.000000 
Rope4_Seg05 0.000000 0.000000 0.000000 0.000000 0.000000 0.000000 10.000000 
Rope4_Seg06 0.000000 0.000000 0.000000 0.000000 0.000000 0.000000 10.000000 
Rope4_Seg07 0.000000 0.000000 0.000000 0.000000 0.000000 0.000000 10.000000 
Rope4_Seg08 0.000000 0.000000 0.000000 0.000000 0.000000 0.000000 10.000000 
Rope4_Seg09 0.000000 0.000000 0.000000 0.000000 0.000000 0.000000 10.000000 
L_rear_hand01 0.000000 0.000000 0.000000 0.000000 0.000000 0.000000 10.000000 
L_rear_hand02 0.000000 0.000000 0.000000 0.000000 0.000000 0.000000 10.000000 
L_rear_hand03 0.000000 0.000000 0.000000 0.000000 0.000000 0.000000 10.000000 
#Beginning of Data. Separated by tabs
#Fr	Tx	Ty	Tz	Rx	Ry	Rz	SF
[MASTER]
17 0.000000 0.000000 0.000000 0.001660 0.001660 0.001660 0.000000
18 0.000000 0.000000 0.000000 0.001660 0.001660 0.001660 0.000000
[root]
17 -20.632099 -66.133873 1209.169189 -88.959648 -44.018570 -90.386909 1211.152100
18 -21.317589 -55.982975 1219.778564 -89.138008 -43.392361 -90.279388 1221.248657
[chest]
17 -84.512650 -34.090519 0.000000 2.129903 -2.037192 -126.175644 91.129311
18 -84.512650 -34.090519 0.000000 2.080271 -2.019655 -127.121964 91.129311
[L_mid_tent01]
17 27.398773 22.120691 -250.553482 -15.976554 -10.885115 66.587830 253.015945
18 27.398834 22.120667 -250.553726 -15.265493 -10.798244 62.722740 253.016190
[R_mid_tent01]
17 23.228794 24.509907 226.238495 -170.879517 5.368777 66.148651 228.744751
18 23.228794 24.509907 226.238495 -170.973068 4.892411 63.028652 228.744751
[spine01]
17 -0.361383 -0.195265 0.000000 0.001938 0.001324 21.326714 0.410763
18 -0.361383 -0.195265 0.000000 0.001937 0.001326 21.200943 0.410763
[Bip01_Neck]
17 165.484543 71.581718 0.000119 175.896118 1.177290 24.871183 180.302734
18 165.484543 71.581718 0.000119 175.896118 1.177290 24.871183 180.302734
[L_humerus]
17 -13.983130 -135.272980 -120.471481 -87.544601 -0.053182 -127.778740 181.680161
18 -13.983130 -135.272980 -120.471481 -86.033127 -1.356421 -109.361710 181.680161
[R_humerus]
17 -13.983309 -135.273102 125.287651 100.040741 -1.646113 -136.659592 184.909012
18 -13.983309 -135.273102 125.287651 97.968216 -2.577563 -120.281036 184.909012
[weapon_bone]
17 235.964890 -300.705902 0.000000 0.000000 -89.951546 -128.212341 382.234833
18 235.964890 -300.705902 0.000000 0.000000 -89.951546 -128.212341 382.234833
[Bip01_Head]
17 102.819794 23.735523 5.410314 3.150732 3.423702 -20.839094 105.662468
18 102.819794 23.735531 5.410309 3.150732 3.423702 -20.839094 105.662468
[eye_left_bone]
17 -24.626970 125.451866 -64.772606 0.000000 -90.000000 -99.840431 143.318359
18 -24.626970 125.451866 -64.772606 0.000000 -90.000000 -99.840431 143.318359
[eye_right_bone]
17 -24.626970 125.451866 64.327362 0.000000 -89.960434 80.159386 143.117676
18 -24.626970 125.451866 64.327362 0.000000 -89.960434 80.159386 143.117676
[L_forearm]
17 322.776093 0.000000 -0.000119 0.000054 0.002347 -87.378914 322.776093
18 322.776093 0.000000 -0.000119 0.000060 0.002346 -87.048103 322.776093
[L_front_hand]
17 241.149185 -0.042021 -3.300071 -177.730911 -0.002212 -81.344643 241.171753
18 241.149185 -0.042021 -3.300071 -177.732986 0.049953 -82.733551 241.171753
[L_weapon_bone]
17 156.183838 0.000000 0.000000 0.002116 0.001016 38.711712 156.183838
18 156.183838 0.000000 0.000000 0.002111 0.001027 38.114674 156.183838
[L_front_hand01_01]
17 86.095154 20.947098 -0.655860 0.405585 -0.442306 -4.620490 88.609184
18 86.095154 20.947098 -0.655860 0.405585 -0.442306 -4.620490 88.609184
[L_front_hand02_01]
17 86.935165 -11.437475 24.513514 116.959450 3.630818 1.495453 91.046425
18 86.935165 -11.437475 24.513514 116.959450 3.630818 1.495453 91.046425
[L_front_hand03_01]
17 86.637497 -14.123976 -20.424902 -118.420097 -4.656303 -0.152527 90.126129
18 86.637497 -14.123976 -20.424902 -118.420097 -4.656303 -0.152527 90.126129
[L_front_hand01_02]
17 71.020905 -0.000179 0.000030 0.001534 0.001777 -8.378851 71.020905
18 71.020905 -0.000179 0.000030 0.001534 0.001777 -8.378848 71.020905
[L_front_hand02_02]
17 71.020927 -0.000119 0.000060 0.001534 0.001777 -8.378851 71.020927
18 71.020927 -0.000119 0.000060 0.001534 0.001777 -8.378848 71.020927
[L_front_hand03_02]
17 71.020905 -0.000060 0.000060 0.001534 0.001777 -8.378851 71.020905
18 71.020905 -0.000060 0.000060 0.001534 0.001777 -8.378848 71.020905
[R_forearm]
17 322.776428 -0.000060 0.000030 0.213233 -0.010306 -88.838028 322.776428
18 322.776428 -0.000060 0.000030 0.213166 -0.011616 -88.133850 322.776428
[R_front_hand]
17 238.847015 -0.006795 2.210259 -1.700452 -0.304142 -88.800560 238.857239
18 238.847015 -0.006795 2.210259 -1.700711 -0.303823 -88.796120 238.857239
[R_weapon_bone]
17 155.664093 0.002503 -0.000030 0.002838 0.002344 -132.710480 155.664078
18 155.664093 0.002503 -0.000030 0.002881 0.002291 -130.607132 155.664078
[R_front_hand01_01]
17 87.624611 14.231146 22.918642 -116.960205 3.496675 -1.324138 91.683487
18 87.624611 14.231146 22.918642 -116.960205 3.496675 -1.324138 91.683487
[R_front_hand02_01]
17 89.356956 14.367283 -19.491137 118.419647 -4.257089 0.609827 92.579636
18 89.356956 14.367283 -19.491137 118.419647 -4.257089 0.609827 92.579636
[R_front_hand03_01]
17 87.286232 -22.307278 -0.143439 -0.387970 -0.231462 4.232001 90.091743
18 87.286232 -22.307278 -0.143439 -0.387970 -0.231462 4.232001 90.091743
[R_front_hand01_02]
17 71.020905 0.000060 0.000119 0.001777 0.001534 8.377220 71.020905
18 71.020905 0.000060 0.000119 0.001777 0.001534 8.377220 71.020905
[R_front_hand02_02]
17 71.020844 -0.000030 -0.000119 0.001777 0.001534 8.377220 71.020836
18 71.020844 -0.000030 -0.000119 0.001777 0.001534 8.377220 71.020836
[R_front_hand03_02]
17 71.020905 0.000000 0.000030 0.001777 0.001534 8.377220 71.020905
18 71.020905 0.000000 0.000030 0.001777 0.001534 8.377220 71.020905
[null_rope01_connect]
17 328.732483 0.000000 -0.000238 121.694809 -70.873779 -52.591579 328.732483
18 328.732483 0.000000 -0.000238 124.144867 -71.478630 -51.910118 328.732483
[Rope1_Seg01]
17 0.000000 0.000000 0.000000 122.808907 21.434601 -179.602142 0.000000
18 0.000000 0.000000 0.000000 123.215797 21.414785 -177.314804 0.000000
[Rope1_Seg02]
17 139.999863 -0.000179 0.000000 1.706756 -8.117123 4.007044 139.999863
18 139.999863 -0.000179 0.000000 2.155360 -7.466148 2.934761 139.999863
[Rope1_Seg03]
17 139.999924 0.000060 -0.000060 0.815406 -23.240147 10.265074 139.999924
18 139.999924 0.000060 -0.000060 2.114226 -18.797245 7.625040 139.999924
[Rope1_Seg04]
17 139.999924 -0.000060 -0.000119 -17.064301 -45.298447 20.005156 139.999924
18 139.999924 -0.000060 -0.000119 -10.010350 -47.235550 13.168017 139.999924
[Rope1_Seg05]
17 139.999832 0.000119 -0.000060 68.291885 -13.139681 52.460083 139.999832
18 139.999832 0.000119 -0.000060 27.304325 -17.241459 46.641010 139.999832
[Rope1_Seg06]
17 139.999954 0.000119 -0.000060 46.952324 27.661907 14.505816 139.999954
18 139.999954 0.000119 -0.000060 84.255905 16.497009 36.998486 139.999954
[Rope1_Seg07]
17 139.999985 0.000060 0.000000 4.795958 7.879438 -1.315194 139.999985
18 139.999985 0.000060 0.000000 7.021528 9.327376 -0.806894 139.999985
[Rope1_Seg09]
17 121.602913 0.000119 -0.000089 -89.793175 -1.359789 0.847147 121.602913
18 121.602913 0.000119 -0.000089 -89.793175 -1.359789 0.847147 121.602913
[L_mid_hand01]
17 103.859421 1.038730 8.195221 104.352036 0.341479 -0.444583 104.187431
18 103.859421 1.038730 8.195221 104.352036 0.341479 -0.444583 104.187431
[L_mid_hand02]
17 105.572853 -4.139662 -10.864139 -135.608444 3.905687 -3.381056 106.211075
18 105.572853 -4.139662 -10.864139 -135.608444 3.905687 -3.381056 106.211075
[L_mid_hand03]
17 104.641464 17.579376 -3.913581 -18.761518 -0.324361 2.942912 106.179977
18 104.641464 17.579376 -3.913581 -18.761520 -0.324361 2.942913 106.179977
[null_rope02_connect]
17 328.732849 0.000179 -0.000119 131.825180 79.206284 -116.400757 328.732849
18 328.732849 0.000179 -0.000119 135.813339 79.537018 -114.878563 328.732849
[Rope2_Seg01]
17 0.000076 0.000110 0.000153 -59.857025 20.258457 1.759655 0.000203
18 0.000076 0.000110 0.000153 -59.626629 19.736004 0.151136 0.000203
[Rope2_Seg02]
17 139.999741 -0.000060 -0.000119 -2.441627 -5.335570 4.994816 139.999756
18 139.999741 -0.000060 -0.000119 -2.924938 -4.486773 5.014390 139.999756
[Rope2_Seg03]
17 140.000107 0.000030 0.000000 -5.025968 -12.699388 12.642530 140.000107
18 140.000107 0.000030 0.000000 -4.855739 -10.416199 11.047055 140.000107
[Rope2_Seg04]
17 139.999802 0.000000 -0.000060 -11.551967 -27.244576 41.285503 139.999802
18 139.999802 0.000000 -0.000060 -12.830867 -21.762596 41.820045 139.999802
[Rope2_Seg05]
17 139.999985 -0.000060 0.000119 -22.218323 -50.103218 -27.375893 139.999985
18 139.999985 -0.000060 0.000119 -15.121091 -49.697357 -15.699615 139.999985
[Rope2_Seg06]
17 139.999893 -0.000030 -0.000119 -24.368578 -11.071549 -26.288883 139.999893
18 139.999893 -0.000030 -0.000119 -30.782574 -19.735531 -30.855486 139.999893
[Rope2_Seg07]
17 139.999893 0.000060 -0.000060 -5.595157 -0.857337 -7.414064 139.999893
18 139.999893 0.000060 -0.000060 -6.726936 -1.508202 -8.265684 139.999893
[Rope2_Seg09]
17 121.338966 0.000089 -0.000060 33.793236 -1.359788 -0.847141 121.338966
18 121.338966 0.000089 -0.000060 33.793236 -1.359788 -0.847141 121.338966
[R_mid_hand01]
17 104.680779 11.144459 -10.335981 -47.384258 2.963522 5.452604 105.778534
18 104.680779 11.144459 -10.335981 -47.384258 2.963522 5.452604 105.778534
[R_mid_hand02]
17 104.070427 2.443552 8.231699 75.626297 -2.250001 1.111093 104.424065
18 104.070427 2.443552 8.231699 75.626297 -2.250001 1.111093 104.424065
[R_mid_hand03]
17 106.028137 -11.221827 -5.996406 -164.381927 2.495984 -6.140522 106.788818
18 106.028137 -11.221827 -5.996406 -164.381912 2.495983 -6.140520 106.788818
[spine02]
17 129.756927 0.001550 0.000119 -1.834782 -3.733028 18.641933 129.756927
18 129.756927 0.001550 0.000119 -1.774800 -3.752475 17.703093 129.756927
[spine03]
17 79.026276 0.015419 -0.872882 3.065980 5.282619 25.697409 79.031097
18 79.016174 0.017182 -0.971551 2.549317 5.256085 19.624928 79.022148
[pelvis]
17 169.435242 0.051022 0.000000 -6.085756 -2.672634 11.706266 169.435257
18 169.435242 0.051022 0.000000 -5.947057 -2.638790 11.416630 169.435257
[null_rope03_connect]
17 -1.257226 -2.466202 137.391083 139.694489 -84.656067 -82.729744 137.418976
18 -1.257226 -2.466202 137.391083 144.822540 -84.494553 -81.093269 137.418976
[null_rope04_connect]
17 -1.259640 -2.480268 -137.844437 139.694489 -84.656067 -82.729744 137.872513
18 -1.259640 -2.480268 -137.844437 144.822540 -84.494553 -81.093269 137.872513
[Rope3_Seg01]
17 0.000050 0.000106 0.000000 -141.420258 44.306763 -87.156029 0.000117
18 0.000051 0.000103 0.000000 -140.120956 42.481888 -86.053520 0.000114
[Rope3_Seg02]
17 139.999924 -0.000119 0.000060 -14.372031 -18.475956 22.285252 139.999924
18 139.999924 -0.000119 0.000060 -15.997551 -20.730236 24.785923 139.999924
[Rope3_Seg03]
17 139.999924 -0.000119 0.000119 -52.340210 -48.631737 58.113026 139.999924
18 139.999924 -0.000119 0.000119 -51.848373 -49.894135 58.604301 139.999924
[Rope3_Seg04]
17 139.999924 0.000119 0.000000 -7.790261 -37.480068 13.539383 139.999924
18 139.999924 0.000119 0.000000 -6.571389 -36.739002 12.989402 139.999924
[Rope3_Seg05]
17 139.999924 -0.000238 0.000060 -3.032096 -56.514057 24.609690 139.999924
18 139.999924 -0.000238 0.000060 -0.433341 -51.710201 20.660349 139.999924
[Rope3_Seg06]
17 139.999893 -0.000119 -0.000060 4.062592 -12.757215 6.074111 139.999893
18 139.999893 -0.000119 -0.000060 4.000845 -12.780201 5.990468 139.999893
[Rope3_Seg07]
17 139.999771 0.000060 -0.000119 2.197347 -4.827735 2.770989 139.999771
18 139.999771 0.000060 -0.000119 2.229948 -5.017973 2.830519 139.999771
[Rope3_Seg08]
17 139.999985 -0.000060 0.000000 1.149504 -1.630994 1.024058 139.999985
18 139.999985 -0.000060 0.000000 1.054674 -1.391178 0.859406 139.999985
[Rope3_Seg09]
17 90.185997 -0.000179 -0.000060 89.793228 -1.359877 -0.847183 90.185997
18 90.185997 -0.000179 -0.000060 89.793228 -1.359877 -0.847183 90.185997
[R_rear_hand01]
17 103.366196 -6.073594 -10.757982 -156.049316 6.070419 -2.795869 104.101845
18 103.366196 -6.073594 -10.757982 -156.049316 6.070419 -2.795869 104.101845
[R_rear_hand02]
17 100.509819 12.039542 -7.992327 -38.708435 1.958051 5.461186 101.543350
18 100.509819 12.039542 -7.992327 -38.708435 1.958051 5.461186 101.543350
[R_rear_hand03]
17 101.539970 5.215704 5.435467 84.307625 -2.361032 4.099037 101.819031
18 101.539970 5.215704 5.435467 84.307625 -2.361032 4.099037 101.819031
[Rope4_Seg01]
17 0.000000 0.000018 -0.000106 79.045357 59.691273 -74.400398 0.000107
18 0.000000 0.000014 -0.000103 77.707275 58.329330 -75.088608 0.000104
[Rope4_Seg02]
17 139.999985 0.000060 0.000119 4.180025 3.151557 -7.860598 139.999985
18 139.999985 0.000060 0.000119 4.110824 3.043012 -7.741955 139.999985
[Rope4_Seg03]
17 139.999924 0.000000 -0.000238 10.654412 12.622375 -51.309361 139.999924
18 139.999924 0.000000 -0.000238 10.332958 12.715683 -53.966190 139.999924
[Rope4_Seg04]
17 139.999985 0.000000 0.000119 -7.200006 0.592337 -64.492630 139.999985
18 139.999985 0.000000 0.000119 -9.138063 0.502766 -66.008293 139.999985
[Rope4_Seg05]
17 139.999802 -0.000060 -0.000119 -24.755745 11.491728 -47.951050 139.999802
18 139.999802 -0.000060 -0.000119 -22.156639 11.925644 -41.660133 139.999802
[Rope4_Seg06]
17 139.999924 0.000000 0.000060 -7.953400 10.250184 -15.637418 139.999924
18 139.999924 0.000000 0.000060 -6.715056 8.758073 -13.344102 139.999924
[Rope4_Seg07]
17 139.999802 0.000000 0.000000 -2.132679 4.391040 -5.264705 139.999802
18 139.999802 0.000000 0.000000 -2.129551 4.131251 -5.105720 139.999802
[Rope4_Seg08]
17 139.999924 0.000000 0.000119 -2.372625 2.119884 -2.367768 139.999924
18 139.999924 0.000000 0.000119 -2.378006 1.978047 -2.280755 139.999924
[Rope4_Seg09]
17 90.185791 0.000060 0.000060 -135.617828 2.228885 0.850567 90.185791
18 90.185791 0.000060 0.000060 -135.617828 2.228885 0.850567 90.185791
[L_rear_hand01]
17 101.696655 -8.392275 -7.654577 -38.746349 0.246096 177.290207 102.329041
18 101.696655 -8.392275 -7.654577 -38.746338 0.246096 177.290207 102.329041
[L_rear_hand02]
17 102.726799 -1.568258 5.773216 84.315163 -1.142796 176.247437 102.900848
18 102.726799 -1.568258 5.773216 84.315163 -1.142796 176.247437 102.900848
[L_rear_hand03]
17 104.552910 9.721220 -10.420293 -155.747955 -4.630845 179.564758 105.519653
18 104.552910 9.721220 -10.420293 -155.747955 -4.630845 179.564758 105.519653
